<?xml version="1.0" encoding="UTF-8"?>
<!DOCTYPE svg  PUBLIC '-//W3C//DTD SVG 1.1//EN'  'http://www.w3.org/Graphics/SVG/1.1/DTD/svg11.dtd'>
<svg enable-background="new 0 0 1832.139 1710.949" version="1.1" viewBox="0 0 1832.139 1710.949" xml:space="preserve" xmlns="http://www.w3.org/2000/svg">
<path d="m1376.1 55.474c0.279 0 11.566 1.833 11.841 1.877 0.205 2.039 0.392 4.078 0.609 6.117 24.006-10.044 24.229 13.733 24.901 28.071 282.15-14.06 252.78 41.526 65.212 72.367-22.086 3.723-44.314 6.465-66.549 9.075 1.558 7.701 6.25 4.944 7.54 35.4 1.772-1.019 3.456-2.462 5.582-2.642 2.142 1.392 1.786 2.427-7.297 26.3 0.025 9.1 0.783 18.213 1.082 27.313-1.461 0.423-2.909 0.833-4.351 1.262 2.486 71.472 4.973 142.94 7.459 214.42 24.406 0.827 35.871-3.064 36.134 16.193 16.734-1.43 33.523-1.821 50.3-2.368 19.456-0.684 38.931-0.97 58.399-1.399-6e-3 -2.89-6e-3 -5.781 0-8.671 1.647-0.634 3.307-1.243 4.967-1.865 0.199-1.666 0.41-3.319 0.628-4.973-1.044-0.833-2.083-1.66-3.102-2.486 0.597-0.839 1.224-1.666 1.852-2.493-0.628-1.243-1.243-2.486-1.852-3.723 0.783-0.609 1.573-1.212 2.393-1.809-1.523-1.846-2.281-4.115-2.63-6.452-2.99 0.205-5.775 1.349-8.429 2.654-2.839 10.012-14.202 16.91-11.773-0.019 1.282-7.827 6.531-21.691 7.72-23.186 1.193-1.125 3.4-1.796 4.687-0.423 3.899 4.223-1.311 12.831 8.665 11.406 1.121-9.985-0.595-10.432 7.441-10.897 5.18-140.64 8.661-141.26 6.831 0.622 2.841 0.329 5.588 1.206 8.112 2.567-1.044 0.628-2.064 1.262-3.083 1.896 4.436 6.934-0.804 18.778 0.97 24.858-2.263 0.852-4.904 1.691-5.75 4.233 2.076 0.671 4.177 1.262 6.266 1.933-0.939 0.46-1.871 0.926-2.772 1.417-0.23 1.61-0.429 3.232-0.628 4.855 1.442 1.256 2.903 2.505 4.357 3.767-0.218 2.679-0.429 5.352-0.634 8.037 223.75 8.994 239.59 68.041 14.303 64.659-0.012 3.736 6e-3 7.472-6e-3 11.207-6.244 6.774-3.291 4.819-8.485 6.297-1.747 2.213-4.401 3.176-7.068 3.711-1.1 6.34-1.225 12.793-1.846 19.189-1.256 0.416-2.493 0.833-3.723 1.262-2.089 82.418-4.134 164.84-6.228 247.25 1.821 0.404 4.364 0.224 5.408 2.107 0.597 3.232 0.497 6.552 0.821 9.821 4.743 0.771 10.026 0.939 13.905 4.165-0.615 6.471-0.541 12.985-0.864 19.475-4.351 0.82-8.696 1.654-13.041 2.486 0.05 7.08 0.131 14.315-1.846 21.184-0.522 1.977-1.685 3.699-3.089 5.159-1.355 55.024-2.499 110.06-3.773 165.09 13.703 2.05 16.798 4.067 15.801 10.573 3.903 3.013 40.115 109.24 41.343 112.89 2.899 1.255 5.985 1.342 1.983 10.797 0.521 1 36.02 83.519 40.354 115.56 8.44 2.712 6.079 2.713 9.846 15.316-0.622 0.522-1.218 1.063-1.734 1.678 0.18 0.821 0.503 1.604 0.833 2.424-0.28 0.305-0.839 0.92-1.119 1.225 0.541 0.957 1.1 1.921 1.672 2.903-0.858 2.188 0.802 3.866 2.263 5.246 0.354 2.841 1.492 5.961 0.056 8.677-6.454 10.75-40.164 7.266-28.668-7.124 0.261-1.343-0.92-2.337-1.498-3.394 1.044-1.019 1.293-2.343 0.709-3.661 0.522-0.51 1.051-1.007 1.591-1.511-0.885-2.772-6.409-5.661 3.643-12.519-1.189-20.966-31.095-98.546-38.595-117.97-2.076 0.615-4.146 1.243-6.21 1.877 12.631 59.251 25.287 118.49 37.899 177.74 62.876 37.98 73.997 41.151 82.107 56.454 11.075-3.213 35.28 29.669 33.896 30.912-14.054 14.495-34.328 20.665-38.682 1.262-0.572-0.659-1.274-1.218-1.865-1.765 0.305-0.317 0.92-0.957 1.231-1.281-1.256-1.088-2.748-1.809-4.289-2.3 0.385-0.677 0.771-1.349 1.162-2.008-1.005-1.48-7.127-2.849-4.643-11.786-10.683-13.907-47.87-35.248-63.304-43.984 1.243 7.608 2.437 15.223 3.73 22.825 8.788 2.074 7.418 7.96 8.653 16.13-0.777 0.845-1.834 1.548-2.182 2.698 0.106 1.784 1.877 2.654 3.133 3.636-0.696 0.727-2.169 1.169-1.958 2.399 0.584 1.113 1.678 1.821 2.598 2.679-0.615 0.404-1.212 0.821-1.796 1.256 0.814 2.02 2.312 3.63 3.966 5.029 0.46 2.642 1.33 5.221 1.591 7.907-1.143 4.19-13.963 4.762-18.287 4.917-9.348-3.809-14.691-8.688-12.563-19.381 2.462-1.063 1.89-3.649 0.995-5.607 2.337-1.274 0.696-3.698-0.199-5.352 0.584-0.46 1.187-0.889 1.821-1.305-0.696-1.61-1.915-2.841-3.301-3.835-0.394-5.494 1.021-7.858 6.943-11.108-1.231-9.908-2.474-19.811-3.711-29.713-15.95-9.125-31.907-18.232-47.857-27.35-0.634 5.383-1.243 10.766-1.871 16.155-48.165 12.688-30.76 8.583-63.969 10.735-2.648 1.542-61.7 43.412-72.162 50.822-0.224 1.635-0.423 3.288-0.622 4.948-6.564 0.864-13.147 1.591-19.705 2.518-3.636 5.146-8.659 6.122-17.504 5.601-0.245 1.005-1.608 9.399-5.855 6.384-0.696-1.063-1.15-2.244-1.828-3.282-2.232-0.435-3.015 2.536-4.892 3.232-1.716-0.075-2.915-1.442-4.158-2.424 1.392-5.613-3.574-9.747-7.59-12.675-9.504 46.141-19.046 92.27-28.538 138.41 5.382 4.244 5.135 11.532 4.301 19.263-3.03 2.338-3.241 1.432-2.169 6.763-0.479 0.51-0.957 1.038-1.336 1.647-0.037 1.305 0.858 2.406 1.405 3.562-2.92 2.808-3.256 2.28 0.174 6.44-0.845 4.444 0.025 9.871-3.599 13.259l-0.143 0.274h-0.951c-10.007-4.947-27.5 5.333-19.562-19.667 1.15-0.578 2.791-0.721 3.369-2.045 0.143-1.33-0.69-2.462-1.169-3.605 0.789-0.466 1.703-0.783 2.381-1.43 0.615-1.492-0.609-2.841-1.119-4.121 0.939-0.472 2.138-0.628 2.847-1.486 0.622-1.784-0.584-3.475-1.212-5.06 1.233-8.183 0.22-13.099 9.274-14.962 9.772-46.763 19.462-93.538 29.203-140.31-1.871-0.845-3.736-1.672-5.594-2.505 0.199-3.108 0.41-6.21 0.622-9.312-14.284-14.9-28.544-29.818-42.847-44.693-7.982 1.066-20.468-0.675-28.488-1.958 2.003 3.896 5.959 22.702-21.209 15.59 2.089-18.388-4.427-4.419 2.996-42.176-7.398-4.739-10.436-15.379-12.413-24.342-121.53 67.627-114.26 60.651-121.73 72.46 6.496 5.586-7.13 26.945-16.87 27.655 0.429 3.705 0.827 7.416 1.249 11.127 1.442-6e-3 2.884-6e-3 4.345 0.012 1.051 6.583 2.051 13.184 3.108 19.773 5.676 0.53 6.686 0.46 8.342 5.663 0.939-0.416 1.89-0.827 2.853-1.218 8.218-49.379 27.245 27.979 10.847 25.113-0.693-0.416-10.939-14.471-11.369-15.08-3.254 7.746-6.279 5.87-15.64 9.268 0.833 6.8 1.635 13.601 2.486 20.401 1.15 0.081 2.362 0 3.506 0.367 4.949 3.748 25.654 60.928 13.874 68.737-36.934 24.603-44.149-24.896-32.286-66.511 1.013-0.236 2.051-0.429 3.089-0.634-1.237-6.831-2.48-13.663-3.723-20.494-2.281-0.224-4.563-0.435-6.838-0.64-2.082-13.253-4.134-26.505-6.216-39.758 1.231-0.852 2.48-1.678 3.73-2.511-3.929-26.511-7.882-53.016-11.798-79.527-1.051-0.646-2.082-1.281-3.114-1.902-0.64-4.967-1.237-9.933-1.877-14.893-1.871 1.852-3.729 3.711-5.588 5.576-2.076-1.243-4.146-2.486-6.216-3.723-17.61 24.653-35.226 49.305-52.83 73.964 0.398 0.821 0.808 1.647 1.231 2.493-8.032 10.158-26.532 38.114-37.383 25.573-36.221 37.64-89.59 67.067-138.32 83.17 1.472 17.379-32.884 22.861-34.573 6.253-51.683 12.534-110.39 4.946-157.7-14.284-0.839 1.224-1.666 2.468-2.493 3.711-5.799-6e-3 -11.599 0-17.399 0-4.563-4.755-9.113-9.523-13.669-14.284-0.012-1.877-6e-3 -3.742-0.012-5.601-49.159-22.48-93.772-63.076-121.83-102.56-1.473 0.821-2.928 1.672-4.401 2.493-15.116-5.787-23.502-19.645-14.253-29.837-7.981-11.556-13.613-24.51-19.263-37.308-5.57 18.443-11.201 36.861-16.758 55.304 1.237 0.211 2.468 0.417 3.711 0.653-2.698 12.631-5.383 25.262-8.081 37.893-3.524 6e-3 -7.049 0-10.567 6e-3 -1.84 6.185-3.736 12.351-5.538 18.549 10.402 5.28-2.138 109.04-39.683 56.628-1.212-1.914-2.48-4.308-1.852-6.595 7.087-10.62 18.831-51.755 29.657-54.347 1.722-5.974 3.307-11.978 4.991-17.958-9.54-4.86-0.318 1.453-24.242-21.134 0.404-0.845 0.821-1.678 1.249-2.486 5.998 1.653 12.003 3.307 18.002 4.967 5.477-5.028 3.101 0.522 9.946-22.359 1.448-0.23 2.903-0.441 4.357-0.646 5.209-17.809 10.343-35.643 15.559-53.451-20.717 9.706-27.805 12.019-70.253 39.795-0.218 1.647-0.416 3.313-0.628 4.979-32.405-1.177-24.061 6.015-42.3 3.755-4.581 2.865-9.349 5.806-14.869 6.303-0.012-1.299-0.012-2.586-0.019-3.854-1.243 0.609-2.486 1.231-3.723 1.859-1.038-0.423-2.07-0.833-3.096-1.231-0.218-1.666-0.429-3.332-0.64-4.979-17.815-8.51-35.636-16.995-53.458-25.486-75.457 129.59-69.299 115.47-81.417 147.93 8.566 21.822-1.469 7.779 0.367 19.612-1.482 1.617-2.205 0.689 0 4.904-2.654 1.402 0.184 23.181-14.707 17.156-13.364-4.573-20.641-5.309-20.805-11.823 0.081-3.04 1.716-5.725 2.779-8.491 3.719-1.047 3.845-0.135 4.575-6.141 0.746-0.522 1.74-0.783 2.238-1.573 0.205-1.175-0.137-2.318-0.28-3.45 2.175-2.124 2.712-1.066 1.069-5.967 5.316-10.152 6.005-14.316 15.484-13.047 14.405-34.564-0.62-5.51 80.715-147.79-1.886-4.715-1.909-8.713 3.667-13.134 1.069 0.423 2.138 0.858 3.214 1.305 7.671-13.669 15.316-27.35 22.999-41.007-10.63-16.877-19.974-14.253-29.849-32.957-72.171 54.788-68.866 51.722-70.539 55.049-1.162 2.362-1.827 5.358-0.336 7.739 1.044 1.684 1.473 4.016-0.062 5.582-2.959 3.425-3.369 8.236-2.735 12.55 0.964 3.879-15.222 6.12-19.139 3.176-5.085-3.643-7.639-9.523-10.803-14.701-5.315-7.845 131.29-127.71 176.98-126.05-0.435-59.438-0.82-118.88-1.256-178.31-19.676-3.937-55.428-12.534-62.788-31.18-11.384 200.58 0.817 162.28-38.135 208.66-2.772 3.251-5.358 6.67-8.51 9.573-16.16 15.858-15.195 31.361-12.998 53.501-6.408 6.106-11.991 3.472-18.586-2.331 4.848-5.445 5.47-13.116 6.166-20.04 1.026-0.64 2.057-1.281 3.089-1.902 0.603-3.829 0.995-7.689 1.591-11.512 1.486-6.297 5.172-11.86 9.417-16.646 4.326-4.985 8.622-9.989 12.936-14.987 61.276-68.785 17.14-153.28 38.782-222.25-17.336-8.086-12.848-9.452-10.573-28.42-4.497-5.416-1.962-9.697 2.517-15.758 0.025-2.928 0.019-5.849 0.025-8.771-6.859-1.313-7.254-0.185-8.939 4.444-3.469-0.646-6.937-1.243-10.406-1.852-1.038-7.646 0.684-15.391 3.761-22.378 3.531 0.429 7.068 0.827 10.605 1.262 0 2.12-6e-3 4.252 0 6.384 21.242 4.227 15.361-1.138 20.519-169.24-3.332-0.224-6.657-0.423-9.989-0.64-3.058-7.005-4.084-15.54-0.062-22.39 3.35 0.025 6.695 0.019 10.039 0.019 0.429-11.599 0.833-23.198 1.249-34.797 0.827-0.634 1.653-1.268 2.486-1.89 0.865-17.935 2.229-15.14-3.189-18.847-0.864-4.78 0.019-10.039 3.624-13.526 1.142-5.045 0.266-4.898 5.911-3.792 0.995-0.783 1.989-1.573 2.984-2.356 1.296-6.687-7.719-22.181 52.824-26.12 1.558-180.57 7.828-135.31-17.368-196.92-11.488-0.247-19.222-25.109-14.384-33.772-33.249-78.273-27.568-85.222-58.984-78.365-4.301-0.249-8.28-3.935-7.664-8.472 7.101-4.336 12.327-9.636 17.423-7.248 1.144-0.752 2.281-1.504 3.419-2.256-0.935-16.581-15.878-2.58-114.71-66.256-283.14-183.74 110.97-148.91 339.24 16.317 148.09 105.27 36.095 143.79-193.57 56.242 1.019 3.313 2.07 6.62 3.089 9.939-1.66 1.243-3.313 2.48-4.967 3.73 10.356 22.974 20.693 45.961 31.061 68.935 22.408-6.186 44.583-10.095 44.83 13.122 1.846-0.224 3.692-0.429 5.545-0.64 2.07-6.216 4.134-12.426 6.21-18.636 2.07 0.41 4.14 0.821 6.21 1.243 3.822 33.908 3.986 25.198-0.622 48.479-1.455-0.622-2.903-1.249-4.351-1.871-2.294-5.178-4.544-10.368-6.838-15.54-2.051 0.211-4.103 0.416-6.154 0.634-0.137 5.134-0.895 11.587-6.253 13.93-0.261 9.026-0.423 18.051-0.64 27.077-1.442 0.845-2.903 1.666-4.345 2.505 0.15 21.774 33.698 82.666 42.008 102.17 0.464 3.482-1.475 13.686-17.765 8.51-17.139-42.052 5.013-0.973-23.584-56.392-0.522 37.408-0.833 74.828-1.293 112.24 10.701-2.539 28.638-2.146 39.727-1.803-4.781-10.673 17.579-61.986 22.974-65.958 10.58 1.361 21.184 2.505 31.776 3.792 6.197-8.817 4.336-9.521 10.524-13.719 9.675 1.927 14.91-1.194 10.66 18.07 15.672 2.355 19.734 3.863 20.513 0.64-1.34-3.754-5.48-5.23 4.395-8.852 3.467-10.033 1.007-11.004-4.047-11.139-7.715-9.599 35.604-19.634 23.409-4.109-2.629 2.405-10.156 5.346-8.982 18.461 5.663 0.267 11.326 0.392 16.988 0.678 2.634-5.128 1.902-15.659 9.33-12.103 6.544-23.201 4.144-10.392 13.526-53.103-2.994-7.32-1.508-9.017 3.027-12.04 1.288-7.851 1.99-6.296 5.128-6.347 7.093-6.608 16.497-9.846 25.349-13.389 0.077-6.61-0.195-8.259 7.018-5.725 39.141-32.15 122.07-21.08 171.56-10.748 12.606 2.48 25.113 5.47 37.539 8.734 21.961 5.619 43.587 12.898 63.95 22.925 11.947 5.967 23.546 12.917 33.423 21.992 19.175 18.201 14.493 26.596 12.979 41.075 10.846 12.887-0.028 18.249-3.133 37.346-1.455-0.218-2.903-0.423-4.345-0.628-1.256 6.005-2.486 12.016-3.736 18.02 0.82 1.038 1.654 2.082 2.486 3.127-1.66 8.491-3.319 16.982-4.967 25.473 4.059 1.349 8.286 2.244 12.264 3.829 5.801 5.719-1.204 17.606-6.657 24.155-3.319-0.839-6.639-1.666-9.958-2.493-3.929 22.757-7.901 45.501-11.773 68.264 1.15 1.883 2.437 3.953 2.101 6.266-0.193 2.306-1.815 4.059-3.294 5.688 1.249 3.332 2.2 7.03 1.156 10.555-0.578 2.244-2.107 4.047-3.667 5.688-0.485 4.842-1.473 9.759-4.065 13.949-1.473 2.194-0.988 5.172-2.636 7.254-1.106 1.374-2.822 0.311-4.14-0.031-37.798 18.932-89.615 17.047-131.55 11.68-29.644-3.96-58.971-10.232-87.664-18.667-2.319 57.125-4.494 114.26-6.887 171.39 5.215-7.318 25.786-16.911 32.423-17.336 23.835-27.17 58.312-49.03 90.692-63.938-0.622-2.493-1.243-4.985-1.871-7.465 11.651-8.621 19.033-7.895 24.379-5.65 0.702-0.373 1.417-0.734 2.132-1.1 1.588-6.193 5.821-7.45 13.799-10.051 7.657-10.287 23.837-5.825 25.175 2.518 48.643-11.931 105.44-6.842 151.96 9.883 9.486-12.126 33.87 0.463 30.061 13.781 44.503 19.443 86.654 56.901 115.41 94.856 8.201-2.495 20.247 8.367 20.774 9.367 1.492 2.679 1.106 5.862 0.771 8.783-0.342 2.368 1.374 4.693 0.417 7.03-0.727 1.921-2.71 2.816-4.357 3.792 23.221 42.417 42.359 97.981 40.348 145.29 1.846-6e-3 3.698-0.012 5.563 0 11.39 25.734-0.246 36.807-8.69 36.171 1.096 28.315-16.842 71.848-28.581 97.455 52.632-28.356 32.052-18.441 60.718-30.987-0.988-2.375-1.411-5.296 0.23-7.484 4.739-3.064 7.098 3.071 8.18 5.52 24.8-7.309 7.903-4.697 30.303-9.318 1.243-30.608 2.524-61.209 3.698-91.817-8.766-8.258-0.057-21.335-9.287-37.7-12.52 15.187-24.228-5.13-26.542-12.587 8.83-0.441 4.418 5.412 23.198 2.934 1.14-7.687 8.833-7.077 17.02-6.297 0.833-34.586 1.647-69.172 2.493-103.76-4.556-0.242-9.119-0.417-13.675-0.646-11.131 53.452-17.946 44.696-19.288 14.564-6.514-3.363-2.827-5.831-3.953-10.058-1.902-3.052-5.905-3.301-9.088-3.96 0.093-4.103 0.653-8.199 0.466-12.295-2.56-8.05-8.326-10.264-2.244-17.106-4.031-19.825-15.521-14.669-33.038-60.643-78.533-13.799-77.703-11.731-71.509-36.681-16.799-3.791-17.672-5.348-16.261 3.083 3.35 1.411 6.676 2.89 10.001 4.364-10.758 1.374-13.032 4.06-39.658-10.499-1.964 2.754-5.352 3.046-8.385 3.674-5.676 6.103-12.251 0.855-29.999-7.963 0.547-0.211 1.629-0.646 2.169-0.864-1.032-1.629-2.611-2.741-4.233-3.705-3.283-30.785-8.413-37.628 17.877-50.232-19.972-2.685-40.211-5.781-58.884-13.688-14.049-6.306-29.225-17.318-23.72-31.77-5.029-10.512-4.022-4.445-4.264-14.838-1.455-1.461-2.909-2.909-4.357-4.357-0.012-3.736-0.012-7.465 0-11.195 1.013-0.218 2.057-0.423 3.096-0.634 0 0-1.948-17.012-1.231-99.437-3.966-0.435-7.925-0.845-11.891-1.249-4.482-8.031-2.424-17.877 1.896-25.511 3.326 0.236 6.651 0.429 9.989 0.653 0.211-9.119 0.41-18.244 0.628-27.357 1.019-0.012 2.057-0.012 3.102-0.012-6e-3 -5.383 0-10.766 0-16.149-1.871-0.833-3.736-1.666-5.594-2.499 0.205-3.929 0.404-7.863 0.628-11.792 1.436-0.218 2.89-0.429 4.339-0.64 0.211-2.692 0.417-5.383 0.634-8.075 1.423 0.205 2.834 0.404 4.27 0.615 24.237-60.505 308.16-62.395 314.64 35.307 3.648 4.496 4.265 6.538-0.634 11.456-0.274 9.691-0.423 19.382-0.646 29.072 1.653 1.666 3.313 3.332 4.985 4.991 9.516-1.476 3.437-1.426 21.737-0.622 0.205-2.698 0.417-5.389 0.628-8.081-7.492-4.72-11.239-5.564-10.082-9.299 1.948-1.859 4.815 0.074 11.232 1.778 3.999-1.614 8.262-2.671 10.424 1.492 0.218 1.175-0.193 2.381-0.317 3.562 14.988 10.457 12.988 13.377-0.684 8.671-0.423 1.815-0.827 3.636-1.193 5.47 2.008 2.965 2.573 6.552 2.524 10.07h19.071c1.352-14.012 6.279-15.641 20.618-11.823 0.199 3.313 0.41 6.626 0.622 9.939 14.092 0.595 32.468 1.029 35.183 1.517 6.197 3.902 10.75 29.783 12.065 36.967 18.111 13.682-3.248 33.323-5.016 51.021 7.944 1.815 15.683 4.457 23.285 7.385 0.417-1.566 1.436-2.797 2.748-3.723 1.473 0.472 2.965 0.914 4.463 1.355-0.205-14.067-0.423-28.134-0.615-42.2-4.824 2.847-10.94 2.381-15.565-0.634-1.411-47.888-2.884-95.77-4.339-143.66-14.025-5.718-20.904-10.181-11.823-18.02-1.594-12.615-1.739-28.3 9.958-33.138-2.275-71.838-4.544-143.67-6.838-215.51-1.057-0.211-2.07-0.416-3.096-0.628-0.435-10.567-0.827-21.128-1.256-31.689-1.467-0.218-2.909-0.429-4.357-0.64-7.372-16.193-9.281-35.17-3.755-52.214-44.352 3.168-170.45 12.026-210.58-8.155-3.307-1.803-7.043-4.09-8.118-7.932-0.373-4.768 3.015-8.752 6.403-11.667 31.499-25.821 151.47-44.788 191.69-50.542-6.664-32.419 4.93-28.148 11.941-29.855-0.671-3.938-1.187-7.891-1.902-11.814m-808.13 458.05c-1.268 1.753-3.686 1.74-5.619 2.002-1.877 2.182-2.822 5.128-1.89 7.944 6.647 0.634 10.154 1.135 8.28 7.546 1.995 1.653 4.04 3.245 6.03 4.917 1.933-6.757 3.35-13.657 5.091-20.463-2.536-2.362-5.625-4.333-6.887-7.72-2.761 0.708-3.594 3.666-5.005 5.774m882.14 26.181c-0.429 3.102-0.839 6.21-1.249 9.318-1.461 1.038-2.915 2.076-4.357 3.127 1.316 155.42 1.03 144.86 1.492 151.3 0.546-5.929 2.611-12.84 8.522-12.183 1.871 0.802 3.176 2.505 4.774 3.742 0 0-2.977 40.482-2.978 40.491 1.032 1.243 2.07 2.486 3.12 3.736-0.224 6.421-0.41 12.849-0.634 19.27-1.653 0.41-3.295 0.82-4.929 1.243 1.894 8.281 0.344 8.393-2.517 9.56 0.205 2.194 0.41 4.395 0.622 6.601 10.869-0.156 25.136 0.605 34.2 6.788 0.367 9.759 0.821 19.512 1.225 29.265 21.063-1.46 0.285 7.554-11.817 14.937-0.417 1.635-0.827 3.276-1.237 4.923-9.007 0.74-17.852 2.729-26.723 4.382-0.224 13.047-0.416 26.089-0.628 39.136 13.901 2.14 11.947 26.675 7.49 30.048-0.553 9.343-0.547 19.226-4.954 27.723-0.41 15.552-0.547 31.124-0.852 46.688-1.181 69.607-2.375 139.22-3.543 208.83 60.427-91.061 73.243-98.219 73.243-98.219 0.256-11.51-4.226-30.666 10.623-8.746 3.301-5.184 9.933-6.023 15.552-5.688 3.239-1.237 6.539-2.319 9.97-2.946 1.051-54.906 2.033-109.81 3.096-164.71 0.13-2.176-1.231-4.059-1.361-6.197-0.783-7.235-0.317-14.533 0.131-21.775-2.692-0.852-5.383-1.666-8.068-2.493-1.106-33.257-3.216-34.276 14.906-36.706 2.294-82.25 4.563-164.5 6.844-246.75-1.032-0.41-2.057-0.814-3.064-1.218-1.471 2.631-1.747 5.94-13.097 1.237-0.012-1.647-0.012-3.294 0.012-4.935 5.897-3.086 4.812-3.616 7.447-13.719-1.871-0.634-3.736-1.256-5.588-1.877 0.199-1.448 0.392-2.903 0.615-4.345-2.07-2.909-4.152-5.8-6.216-8.709 0.404-3.102 0.814-6.197 1.249-9.293-33.989-1.683-67.91-5.338-101.32-11.834m-486.1 55.317c2.48 0 4.967 0 7.459-6e-3 -0.41-5.594-0.839-11.183-1.243-16.777-2.051-1.641-4.109-3.27-6.117-4.948-0.223 7.235-0.043 14.483-0.099 21.731m294.58 6.837c3.761-0.224 7.534-0.348 11.294-0.684-6.295-7.502-8.545-6.007-11.294 0.684m-16.721-1.858c0 5.8-6e-3 11.599 6e-3 17.405 2.064-0.833 4.134-1.66 6.21-2.486-0.012-1.66-0.012-3.313 0-4.96-0.839-0.429-1.666-0.852-2.48-1.268 0.199-3.524 0.41-7.043 0.615-10.561-1.455 0.62-2.909 1.242-4.351 1.87m-791.3 8.105c0 1.423 6e-3 2.853 0.019 4.283 8.707 7.907 11.101 18.17 3.711 29.265 26.368-0.808 52.849 0.479 78.956 4.345-0.41-2.026-0.808-4.047-1.243-6.061-7.873-2.044-7.751-8.89-6.247-16.939-9.144-1.268-18.3-2.48-27.437-3.761-2.673-2.785-4.743-6.57-3.742-10.542-5.085-0.429-10.169-0.796-15.254-1.243-0.014 6.822-8.233 4.689-20.674 3.723-6e-3 -1.442 0-2.872 0-4.301-2.631 0.759-5.354 1.144-8.089 1.231m513.45 11.786c-2.485 99.408-2.917 85.413-0.634 97.579 2.287-2.057 4.563-4.134 6.838-6.204 0.429-29.632 0.827-59.257 1.249-88.889-2.486-0.833-4.972-1.659-7.453-2.486m351.86 23.596c1.833 16.339-0.372 13.056-35.456 13.079-2.431 5.091-4.712 10.996-9.946 13.831-0.037 4.09-6e-3 8.18-0.012 12.27-1.044 0.41-2.07 0.827-3.089 1.249-0.124 0.883-0.199 1.784-0.298 2.685-0.776-5.878-4.048-17.71-11.493-20.811-0.093 9.554-0.012 19.108-0.037 28.668 23.235 0.92 46.465 2.058 69.65 3.873 12.463 0.914 25.001 1.716 37.265 4.227-0.019-1.032-0.019-2.057-6e-3 -3.071-6.129-5.464-10.592-13.377-10.207-21.768 0.249-7.024 3.848-13.42 8.336-18.642 0.019-2.729-6e-3 -5.451 0.025-8.174-1.51-0.783-3.133-1.883-4.911-1.467-0.56 0.472-1.082 0.976-1.566 1.51-6.788-0.174-13.57-0.404-20.351-0.603-1.219-1.859-2.101-4.183-0.734-6.216-5.726-0.224-11.451-0.385-17.17-0.64m-73.336 9.088c-0.765 13.756-1.262 27.524-1.915 41.28 2.275 0.41 4.55 0.833 6.831 1.256-1.537-40.94-0.242-32.854-4.916-42.536m-951.71 41.293c-0.416 5.377-0.852 10.754-1.237 16.137 2.502 3.653 1.726-2.503 2.48 36.724 2.107 0.193 5.414 0.758 6.204-1.896-0.427-3.331-4.743-13.939 0.584-18.822 0.528-9.057 0.839-18.12 1.287-27.176-3.102-1.667-6.21-3.314-9.318-4.967m951.04 8.69c-6e-3 3.108-6e-3 6.216 0 9.324 2.064 1.243 4.134 2.486 6.21 3.736-0.193-4.357-0.41-8.709-0.615-13.06-1.878-7e-3 -3.737-7e-3 -5.595 0m-951.66 67.145c-1.486 60.942-2.866 121.89-4.388 182.82 9.111 5.171 5.801 11.537 11.854-183.46-2.493 0.211-4.979 0.416-7.466 0.64m739.8 57.802c-2.2 4.469-2.22 19.096 5.538 13.762-0.273-2.499-0.448-5.004-0.671-7.497-6.736-3.976-3.972-4.256-1.84-6.527-1.006-0.483-2.393-0.987-3.027 0.262m12.892 11.152c-2.042 5.104-1.707 7.187 4.388 8.858 0.025-2.113 0.025-4.227 0.025-6.334-1.479-0.846-2.946-1.685-4.413-2.524m20.569 1.908c0.634 3.301 1.237 6.608 1.871 9.914 13.082-0.961 6.884-1.357 22.999 6.856 2.229-16.053 8.409-15.614-24.87-16.77m-8.69 3.724c0.199 1.883 0.423 3.773 0.584 5.669 6.174 3.748 6.265-2.619 4.389-6.918-1.666 0.41-3.326 0.826-4.973 1.249m359.66 4.115c-7.086 3.015-14.614 4.842-22.129 6.452-0.224 2.064-0.429 4.134-0.634 6.21 2.275-0.211 4.569-0.398 6.863-0.646 3.467-3.268-1.36-1.706 25.467-6.807-6e-3 -3.531 0-7.055-6e-3 -10.58-3.407 1.411-6.13 4.022-9.561 5.371m-285.18 11.369c-4.152 4.793-2.617 11.748-1.771 17.448 7.186 1.082 14.402 1.983 21.576 3.152 1.15 1.312 2.741 2.207 4.556 2.082 63.454-2.106-33.067-10.885 54.707-0.87-0.87-4.768-1.672-9.542-2.511-14.309-10.036-0.302-7.711 2.825-76.557-7.503m182.82 6.949c-27.12 1.796-54.322 1.772-81.486 1.187 13.485 25.337 57.939 9.411 138.65-6.695-18.977 2.537-38.041 4.47-57.168 5.508m87.696 0.566c2.094 6.904 6.183 18.412 11.742 13.793-1.178-7.021 5.326-7.899 12.494-8.255-0.23-3.301-0.423-6.601-0.628-9.896-7.869 1.461-15.745 2.891-23.608 4.358m-187.12 0.615c1.038 4.967 2.064 9.939 3.108 14.912 3.525 0.435 7.049 0.839 10.586 1.243-2.94-5.371-5.818-10.772-8.721-16.155-1.666-6e-3 -3.325-6e-3 -4.973 0m159.1 6.975c-10.785 1.765-21.495 4.109-32.255 6.067-4.668 6.13-47.192 62.249-52.134 69.035-0.347 4.266-1.446 44.169-4.475 139.71 14.991 0.316 10.807 18.815 10.567 24.988-1.243 0.833-2.493 1.653-3.723 2.499-0.833 7.036-1.66 14.079-2.486 21.122-1.243 1.032-2.486 2.064-3.723 3.102-0.423 30.26-0.839 60.525-1.243 90.785 1.225 1.417 2.443 2.847 3.692 4.264 25.361 1.865 90.293 44.23 93.309 49.119 12.134-17.616 24.528-35.083 36.513-52.786 0.309-8.546 3.795-295.9 3.848-300.25-1e-3 -1e-3 -8.696-41.031-8.696-41.032-1.473 0.012-2.953-0.081-4.389 0.174-3.5 1.721-5.024 12.69-5.569 16.628-2.083-6e-3 -4.159-6e-3 -6.222 0-3.786-10.934-4.333-22.664-4.333-34.132-5.764 3.194-12.57 1.951-18.681 0.702m-79.496 16.652c2.019 11.126 0.886 8.434-3.145 30.458 1.026 0.609 2.057 1.231 3.108 1.859 10.368-13.246 20.693-26.518 31.074-39.745-10.357 2.424-20.694 4.942-31.037 7.428m-97.616 3.108c3.246 7.266 10.639 28.534 17.411 28.898-3.717-8.292-2.822-17.709-1.287-26.406-5.371-0.851-10.754-1.665-16.124-2.492m19.853 2.418c-4.93 17.463 2.3 31.458 5.141 34.051 8.805 3.745 10.014 13.719 11.12 23.279 1.268-7.36 2.816-14.981 1.635-22.427-2.382-5.123-1.922-5.228 0.162-30.446-2.667 0.056-5.576 0.062-7.683-1.821-9.048-0.555-4.362-1.491-10.375-2.636m47.876 29.906c2.133 10.555-1.699 11.402-5.625 8.715-0.752-2.716-1.629-5.402-2.437-8.093-1.256-0.012-2.493-0.019-3.717-6e-3 -3.997 6.391-2.981-3.174-3.755 37.899 4.134 0.261 8.28 0.404 12.42 0.659 2.704-3.307 5.383-6.633 8.087-9.939 0.23-9.125 0.417-18.244 0.634-27.369-1.871-0.636-3.742-1.257-5.607-1.866m-890.12 131.15c0.211 56.559 0.41 113.12 0.622 169.68 11.257 0.755 33.809 2.524 42.53 9.908-4.695 1.984-7.313 0.068-11.456 2.567 2.34 3.239 11.425 4.694 20.513 6.197 4.998-60.693 9.921-121.4 14.937-182.1-5.576 0.211-11.133-0.398-16.684-0.82-16.845-1.554-33.66-3.481-50.462-5.439m94.533 8.137c-6.042-0.218-12.016-1.392-18.064-1.318-6.023 61.128-12.034 122.26-18.033 183.38 6.961 2.395 20.571 6.999 26.07 11.612-1.709-4.668-3.282-9.392-4.942-14.079 2.057-5.601 4.152-11.195 6.216-16.789 1.647-0.019 3.307-0.012 4.96-6e-3 2.822-28.42 8.329-56.597 16.603-83.928 7.571-24.522 17.573-48.603 32.516-69.613-1.461-1.448-2.909-2.897-4.351-4.345 0.205-2.287 0.41-4.569 0.615-6.844-13.667 2.826-27.715 2.609-41.59 1.925m1067.3 34.722c-0.037 3.319-0.019 6.651-0.019 9.983-1.666 0.615-3.326 1.237-4.979 1.852-1.044-1.25-2.076-2.493-3.108-3.723-19.588 17.01-10.401 6.867-77.066 106.91 1.001 0.098 91.763 7.022 100.71 2.58 1.61-39.192 3.307-78.378 4.96-117.56-5.955 0.317-12.494 0.043-17.455-3.674-1.025 1.206-2.032 2.424-3.045 3.636m40.404 15.578c-0.876 33.946-1.641 67.897-2.524 101.84 0 0 9.634-0.655 34.207-9.852-17.404-79.069-13.344-77.331-31.683-91.991m34.007 57.262c2.418 10.766 5.128 21.476 7.372 32.286 0.827-3.133 2.325-6.017 3.966-8.789-4.314-10.598-8.684-21.172-12.917-31.795 0.044 2.834 1.008 5.538 1.579 8.298m-7.297 51.524c0.211 7.652 0.398 15.304 0.628 22.956 5.053 0.883 10.275 2.2 14.315 5.551-2.573-10.729-4.973-21.501-7.484-32.242-2.493 1.236-4.985 2.473-7.459 3.735m-132.39 6.129c-7.807 1.771-15.913 0.497-23.621-1.169-0.23 16.727-0.423 33.455-0.628 50.188 2.946 0.547 4.519 3.232 5.675 5.744 10.856-1.594 51.712 13.438 63.31 19.276 1.877-23.41 3.73-46.813 5.601-70.222-61.069-7.513-41.61-5.421-50.337-3.817m-1150.1 24.833c-13.775 6.757-25.728 16.702-36.569 27.45 1.852 2.468 3.145 5.445 5.389 7.577 12.482 5.301 16.652 11.522 20.277 20.103 7.577-12.538 15.217-25.038 22.775-37.588-1.51-6.931 0.566-14.141 4.376-19.966-0.205-1.026-0.41-2.064-0.615-3.065-5.283 1.616-10.685 2.978-15.633 5.489m1252.9-3.326c-2.542 1.349-2.648 4.625-3.879 6.943 5.417 3.17 1.639 12.325-0.628 18.778 1.71 2.743 3.479 5.217-2.437 13.078 1.91 2.319 4.211 4.029-0.012 14.272 2.045 2.922 0.783 6.552-0.696 9.417 9.36 0.101 14.959-1.491 12.475 9.312 0 0-7.659 2.65-24.914 3.145 13.246 8.274 26.499 16.553 39.739 24.839 0.012-30.048 0-60.09 6e-3 -90.132-5.389-3.941-10.772-7.882-16.162-11.804-1.173 0.71-2.348 1.407-3.492 2.152m-41.255 1.567c-1.256 16.789-2.486 33.573-3.742 50.362 6.595-0.435 13.197-0.821 19.804-1.25-2.319-5.495-0.274-11.605 3.12-16.149-3.388-4.687-1.797-10.81 0.609-15.546-1.044-3.208-0.827-6.62 0.025-9.834 7.321-0.366 1.11-7.304-1.231-9.336-6.24-1.709-12.432 0.926-18.585 1.753m-242.73 4.09c-0.852 1.399-5.296 9.138-7.136 11.431 11.118 9.855 8.488 4.541 12.413 43.481 34.471-26.105 39.72-38.552 39.72-38.552-19.531-19.531-42.303-18.755-44.997-16.36m-907.7-0.361c-1.627 4.622-0.972 3.115-7.005 6.831 1.057 39.161 2.07 78.322 3.12 117.48 6.626 0.454 13.265 0.821 19.891 1.268 4.509-3.409 8.298-17.641 8.124-24.895 0.802-0.839 1.616-1.653 2.424-2.462 3.392-37.064 8.938-56.453 17.417-92.612-18.677 0.886-14.384-5.606-43.971-5.606m850.76 0.628c-1.946 3.854-2.126 8.329-1.194 12.494-6.728 11.608-10.406-6.337-11.282-9.125-6.993-0.346-30.11 14.438-36.563 18.381 15.381 6.573 22.351 7.329 56.28 31.571 2.668-1.488 4.076-3.074 15.179 1.368 0.423-15.546 0.833-31.093 1.256-46.639-7.403 0.151-10.029 5.442-18.07-8.671-1.87 0.205-3.747 0.404-5.606 0.621m370.53 5.557c-0.429 31.086-0.827 62.179-1.256 93.271 14.912 8.908 29.831 17.815 44.749 26.723-7.844-37.091-15.751-74.169-23.602-111.25-8.037-6.486-14.657-10.574-19.891-8.74m-1263.2 14.291c0.404 9.285 0.808 4.783-22.303 45.414 10.145 17.181 20.264 34.381 30.446 51.543-0.211-35.848-0.367-71.702-0.646-107.55-3.929 2.095-7.584 5.855-7.497 10.592m91.456-10.536c-25.803 120.02-10.977 67.407-14.291 105.68 20.295-11.208 40.609-22.371 60.904-33.567 1.882-19.517 2.409 5.619-8.709-53.451-26.558-14.944-31.633-18.148-37.904-18.66m909.2 20.432c-15.608 20.085-3.835 6.271-38.999 38.141 2.99-1.44 60.551-33.758 61.551-34.318-4.96-3.332-9.939-6.633-14.906-9.946-2.592 1.983-5.7 3.419-7.646 6.123m-199.97 16.889c0.591 0.777 1.187 1.56 1.803 2.362 5.469-0.805 38.897 43.388-0.535 23.739 1.103 10.259 1.149 16.667-1.828 20.662 1.784 9.281 3.699 18.542 5.532 27.817-1.038 1.436-2.07 2.878-3.095 4.326 1.007 9.747 2.064 19.487 3.102 29.24 4.202-1.43 8.634-2.275 12.706-4.047 18.515-15.47 19.157-14.814 105.39-63.092-0.012-1.666-0.012-3.319 0-4.967-1e-3 0-29.668-9.579-29.669-9.579-1.84-1.902-1.436-4.811-1.454-7.223-22.519-16.521-60.867-37.24-60.867-37.24-10.4 5.937-20.731 11.991-31.087 18.002m321.44 2.008c-3.55 0.379-7.099 0.721-10.636 1.1-0.211 1.852-0.429 3.699-0.622 5.57 9.221 1.393 26.243 3.259 35.046 0.093-2.369-0.936-21.236-7.105-23.788-6.763m-147.59 32.037c-3.761 2.399-7.727 4.538-11.077 7.515 5.912 3.957 20.859 13.238 26.219 18.617 2.039-2.238 4.115-5.377 7.54-5.159 11.422-26.66 25.405-47.571 25.405-47.571-16.155 8.634-32.317 17.274-48.087 26.598m64.572-17.616c-6.247 7.363-19.548 35.623-24.466 46.073 4.521 3.014 1.948 16.727 0.51 24.51 13.594 14.079 27.326 28.034 40.845 42.182 0.093-3.916 2.449-7.217 5.103-9.884 1.448 0.416 2.915 0.839 4.389 1.262 10.881-53.224 8.179-30.755 11.201-103.17-0.839-0.429-1.666-0.845-2.474-1.243-11.455 10.906-22.056 6.399-29.253-7.441-1.964 2.561-3.829 5.202-5.855 7.714m-278.77 9.603c-1.274 7.13-1.995 14.502-4.88 21.215 7.602-1.337 15.242-2.486 22.856-3.755-6e-3 -3.27-6e-3 -6.527 0-9.784-2.53-0.099-4.575-1.697-5.713-3.873-2.455 0.187-4.898 0.398-7.341 0.615-0.174-4.27 0.472-8.622-0.578-12.805-3.157 1.426-3.978 5.261-4.344 8.387m391.84 0.802c7.124 3.947 14.309 7.782 21.464 11.686 0.423-4.979 0.833-9.952 1.249-14.925-7.564 1.138-15.198 1.853-22.713 3.239m-46.906 0.516c-0.012 1.225-0.019 2.455 0 3.711 21.75 15.751 43.506 31.49 65.262 47.235 1.05-11.388 2.07-22.782 3.114-34.176-9.343-5.737-18.555-11.711-27.978-17.293-13.451-0.049-26.934 0.362-40.398 0.523m80.815 1.853c-0.429 4.967-0.833 9.933-1.25 14.906 12.824 7.266 25.685 14.49 38.514 21.762 3.543-2.462 7.061-4.967 10.586-7.459-15.95-9.741-31.9-19.475-47.85-29.209m-1233.3 32.932c0.398 1.218 0.814 2.468 1.212 3.711 15.117 6.465 30.266 12.855 45.396 19.295-0.846-10.903 6.528 3.756-27.966-55.316-6.21 10.765-12.426 21.538-18.642 32.31m1151.8-27.338c-1.088 34.219-2.033 68.445-3.158 102.66 16.53 11.739 29.354-3.881 76.494-36.152-16.34-12.576-21.128-13.71-11.873-19.947-20.493-15.516-40.981-31.037-61.463-46.565m80.18 14.925c-0.839 11.593-1.66 23.192-2.493 34.791 6.21-0.081 12.438 0.174 18.642-0.112 18.816-9.503 15.292-10.155 19.276-15.409-11.804-6.434-23.614-12.855-35.425-19.27m-435.26 11.661c-8.212 18.39-27.389 48.547-41.629 71.876 6.982-6.982 44.865-63.441 50.462-71.745-1.455-1.237-2.897-2.48-4.326-3.717-1.511 1.174-3.4 1.995-4.507 3.586m218.94 1.939c0.584 2.263 1.193 4.519 1.852 6.776 6.774 1.207 7.976 6.242 7.447 13.122-3.515 3.515-2.323 3.335-0.218 4.531-2.602 3.392-1.032 2.559 0.118 3.748 3.06-2.943 9.813-7.533 7.036-10.468 0.056-1.89 0.709-3.841 0.286-5.669-3.362-6.203-9.577-10.753-16.521-12.04m266.07 13.122c-1.622 1.877-3.475 3.574-4.873 5.638-0.715 2.412-0.895 4.942-1.367 7.416 7.459-1.051 14.925-2.064 22.384-3.12 0.398-0.839 0.808-1.666 1.231-2.474-5.788-2.499-11.594-4.961-17.375-7.46z"/>
</svg>
