<?xml version="1.0" encoding="UTF-8"?>
<svg version="1.1" viewBox="0 0 225.78 259.38" xmlns="http://www.w3.org/2000/svg">
 <g transform="translate(-112.15 -323.46)">
  <path d="m-51.927 1211.4s-19.084-0.022-0.6989-132.69c18.385-132.67 28.581-179.63 47.303-287.74 7.058-16.144-68.386-92.223-128.92-197.74-61.752-107.65-143.67-235.81-188.73-280.45 0 0 174.61-335.45 237.82-349.69 0 0 301.38 108.86 337.07 144.55 0 0-1.6885 91.675-28.643 104.22-26.954 12.545-108.88 44.596-154.54 34.604 0 0-66.513-72.404-90.339-83.503 0 0-6.2708 4.3005 1.4514 23.868 7.7223 19.567-10.401 69.409-39.278 89.532 0 0-21.845 3.1385-20.069 6.7997 1.7759 3.6612 5.1862 8.7151 30.211 12.041 25.025 3.3263 41.423 16.893 51.14 21.771 9.7179 4.8781 39.999 16.859 64.275 23.708 0 0 237.12 313.26 237.12 342.05 0 0-71.967 66.21-101.91 69.003 0 0-4.9395 0.036 0 4.9752 4.9395 4.9394 64.576-0.9453 70.888 5.3668s2.0121 22.684 6.6121 38.006 22.423 131.29 18.492 150.03c0 0-2.1134 15.798 3.9779 28.437 2.6931 15.337 7.0638 82.162 5.3597 88.037-1.7042 5.8755 3.834 11.414 3.834 11.414s6.1136-2.9048 6.1136-14.191c0-11.287-14.714-261.05-3.911-270.72 0 0 10.116-12.895 18.905-12.895 8.7897 0 24.763-16.029 32.11-20.005 0 0 4.1583-5.0769-6.9741-10.951-11.132-5.8739-31.725-18.701-41.369-59.708-11.644-20.008-24.279-66.087-42.322-107.92s-13.73-36.424-13.73-36.424-95.371-114.55-124.65-153.11c0 0-16.104-21.264 0-20.371 16.104 0.8935 144.04 21.674 160.33 34.795 0 0 53.016 4.6835 81.207 39.683 32.728 29.035 57.304 56.303 68.414 60.484 0 0 8.8715 5.9367 12.407 14.309s10.106 8.5808 13.767 3.4523c3.6608-5.1286 12.321-17.493 16.67-17.493 4.3491 0 117-105.42 123.05-105.42 6.0514 0 12.327-9.6339 14.314 6.1003 1.9872 15.734-14.467 140.6-25.387 151.52-1.9001 9.1588-23.234 109.72-34.18 133.09s-15.924 16.687-38.31 46.531c0 0-18.462 35.024-29.648 46.21s-20.622 22.675-22.309 29.028c-1.6869 6.3539-13.386 144.18-8.6575 181.52 0 39.338 0.7406 137.01-2.4326 150.93s-6.3809 32.405-6.3809 48.072c0 0 1.8606 13.464-7.7947 14.32s-501.66 2.5487-501.66 2.5487z" display="none" fill="#0f0"/>
  <path d="m-51.927 1211.4s-19.084-0.022-0.6989-132.69c18.385-132.67 28.581-179.63 47.303-287.74 7.058-16.144-68.386-92.223-128.92-197.74-61.752-107.65-143.67-235.81-188.73-280.45 0 0 174.61-335.45 237.82-349.69 0 0 301.38 108.86 337.07 144.55 0 0-1.6885 91.675-28.643 104.22-26.954 12.545-108.88 44.596-154.54 34.604 0 0-66.513-72.404-90.339-83.503 0 0-6.2708 4.3005 1.4514 23.868 7.7223 19.567-10.401 69.409-39.278 89.532 0 0-21.845 3.1385-20.069 6.7997 1.7759 3.6612 5.1862 8.7151 30.211 12.041 25.025 3.3263 41.423 16.893 51.14 21.771 9.7179 4.8781 39.999 16.859 64.275 23.708 0 0 237.12 313.26 237.12 342.05 0 0-71.967 66.21-101.91 69.003 0 0-4.9395 0.036 0 4.9752 4.9395 4.9394 64.576-0.9453 70.888 5.3668s2.0121 22.684 6.6121 38.006 22.423 131.29 18.492 150.03c0 0-2.1134 15.798 3.9779 28.437 2.6931 15.337 7.0638 82.162 5.3597 88.037-1.7042 5.8755 3.834 11.414 3.834 11.414s6.1136-2.9048 6.1136-14.191c0-11.287-14.714-261.05-3.911-270.72 0 0 10.116-12.895 18.905-12.895 8.7897 0 24.763-16.029 32.11-20.005 0 0 4.1583-5.0769-6.9741-10.951-11.132-5.8739-31.725-18.701-41.369-59.708-11.644-20.008-24.279-66.087-42.322-107.92s-13.73-36.424-13.73-36.424-95.371-114.55-124.65-153.11c0 0-16.104-21.264 0-20.371 16.104 0.8935 144.04 21.674 160.33 34.795 0 0 53.016 4.6835 81.207 39.683 32.728 29.035 57.304 56.303 68.414 60.484 0 0 8.8715 5.9367 12.407 14.309s10.106 8.5808 13.767 3.4523c3.6608-5.1286 12.321-17.493 16.67-17.493 4.3491 0 117-105.42 123.05-105.42 6.0514 0 12.327-9.6339 14.314 6.1003 1.9872 15.734-14.467 140.6-25.387 151.52-1.9001 9.1588-23.234 109.72-34.18 133.09s-15.924 16.687-38.31 46.531c0 0-18.462 35.024-29.648 46.21s-20.622 22.675-22.309 29.028c-1.6869 6.3539-13.386 144.18-8.6575 181.52 0 39.338 0.7406 137.01-2.4326 150.93s-6.3809 32.405-6.3809 48.072c0 0 1.8606 13.464-7.7947 14.32s-501.66 2.5487-501.66 2.5487z" display="none" fill="#f00"/>
  <g transform="translate(-1278 -322.39)">
   <path d="m1044 1522.5s-19.084-0.022-0.6989-132.69c18.385-132.67 28.581-179.63 47.303-287.74 7.058-16.144-68.386-92.223-128.92-197.74-61.752-107.65-143.67-235.81-188.73-280.45 0 0 174.61-335.45 237.82-349.69 0 0 301.38 108.86 337.07 144.55 0 0-1.6885 91.675-28.643 104.22-26.954 12.545-108.88 44.596-154.54 34.604 0 0-66.513-72.404-90.339-83.503 0 0-6.2708 4.3005 1.4514 23.868 7.7223 19.567-10.401 69.409-39.278 89.532 0 0-21.845 3.1385-20.069 6.7997 1.7759 3.6612 5.1862 8.7151 30.211 12.041 25.025 3.3263 41.423 16.893 51.14 21.771 9.7179 4.8781 39.999 16.859 64.275 23.708 0 0 237.12 313.26 237.12 342.05 0 0-71.967 66.21-101.91 69.003 0 0-4.9395 0.036 0 4.9752 4.9395 4.9394 64.576-0.9453 70.888 5.3668s2.0121 22.684 6.6121 38.006 22.423 131.29 18.492 150.03c0 0-2.1134 15.798 3.9779 28.437 2.6931 15.337 7.0638 82.162 5.3597 88.037-1.7042 5.8755 3.834 11.414 3.834 11.414s6.1136-2.9048 6.1136-14.191c0-11.287-14.714-261.05-3.911-270.72 0 0 10.116-12.895 18.905-12.895 8.7897 0 24.763-16.029 32.11-20.005 0 0 4.1583-5.0769-6.9741-10.951-11.132-5.8739-31.725-18.701-41.369-59.708-11.644-20.008-24.279-66.087-42.322-107.92s-13.73-36.424-13.73-36.424-95.371-114.55-124.65-153.11c0 0-16.104-21.264 0-20.371 16.104 0.8935 144.04 21.674 160.33 34.795 0 0 53.016 4.6835 81.207 39.683 32.728 29.035 57.304 56.303 68.414 60.484 0 0 8.8715 5.9367 12.407 14.309s10.106 8.5808 13.767 3.4523c3.6608-5.1286 12.321-17.493 16.67-17.493 4.3491 0 117-105.42 123.05-105.42 6.0514 0 12.327-9.6339 14.314 6.1003 1.9872 15.734-14.467 140.6-25.387 151.52-1.9001 9.1588-23.234 109.72-34.18 133.09s-15.924 16.687-38.31 46.531c0 0-18.462 35.024-29.648 46.21s-20.622 22.675-22.309 29.028c-1.6869 6.3539-13.386 144.18-8.6575 181.52 0 39.338 0.7406 137.01-2.4326 150.93s-6.3809 32.405-6.3809 48.072c0 0 1.8606 13.464-7.7947 14.32s-501.66 2.5487-501.66 2.5487z" display="none" fill="#f00"/>
  </g>
  <path d="m157.65 337.29c-10.389 0.20161-20.538 5.1356-27.062 14.219-10.987 15.298-7.4846 36.638 7.8125 47.625 0.60573 0.43481 1.2203 0.76658 1.8438 1.1562 13.979-10.995 36.774-42.75 39.875-55.031-0.63766-0.53224-1.2521-1.0704-1.9375-1.5625-6.2148-4.4633-13.423-6.5442-20.531-6.4062zm25.375 10.656c-3.8119 16.902-24.383 41.041-38.031 54.844 7.1786 3.0481 15.051 3.4866 22.312 1.5 0.0153-0.0161 0.0468-0.0152 0.0625-0.0313 4.6064-4.6789 9.7121-10.821 13.781-16.5 4.0968-5.7179 8.3086-12.373 11.156-18.344-0.45952-7.8644-3.6367-15.526-9.2812-21.469zm40.188 21.719c-2.0787 0.0519-4.1118 1.0965-5.3125 2.9688l-10.219 15.938c-1.0304 1.6068-4.4442 4.535-3.9688 6.25 0.4109 1.4823 3.83 3.2031 5.2188 4.0938l13.156 5.6562c2.9956 1.921 5.6728 1.0581 7.5938-1.9375l10.188-15.906c0.8565-1.3357 2.1964-3.2207 2-4.6875-0.2439-1.8228-2.2776-3.1856-3.9375-4.25l-11.094-7.125c-1.1234-0.72038-2.3777-1.0311-3.625-1zm-27.969 1.875c-8e-3 0.0164-0.0233 0.0452-0.0313 0.0625l0.0625 0.125c-1.1236 2.1602-2.3537 4.3709-3.6562 6.5938-0.0176 0.0329-0.0439 0.061-0.0625 0.0937-2.2733 3.8424-4.7935 7.6948-7.5938 11.594-2.758 3.8402-5.6281 7.446-8.5 10.781-0.0151 9e-3 -0.0156 0.0222-0.0313 0.0313-1.6944 1.9547-3.3571 3.8484-5.0625 5.625 3.0518 1.8587 6.506 3.9628 9.875 6.0312 2.6932-3.8809 5.5157-7.6534 8.4688-11.281 3.1016-4.0771 8.2532-7.9895 13.469-4.9375-2.1399-4.9064 4.6317-7.9094 5.9375-12.094 0.35542-0.3909 0.70661-0.80942 1.0312-1.25-4.9759-3.9979-9.6604-7.8378-13.906-11.375zm53.469 10.781c-2.1871 0.017-4.3004 1.1213-5.5 3.125l-9.5625 15.969c-0.9707 1.6213-3.2588 4.2509-2.75 5.9375 0.4494 1.4896 3.5368 2.0802 4.9688 2.9375 2.2629 1.1681 10.732 3.438 10.844 6.4688 0.1263 3.4254-3.2242 9.7165-0.84375 13.375 1.1972 0.71679 4.883-4.1216 7.2812-7.6562 1.0313-1.5201 2.2076-2.456 2.5938-2.9375 0.9123-1.1374 1.9158-1.9401 2.7188-3.2812l9.5625-15.938c1.828-3.0533 0.83455-7.047-2.2188-8.875l-13.719-8.2188c-1.0496-0.62837-2.2293-0.91514-3.375-0.90625zm-50.75 14.875c-0.15143 8e-3 -0.31393 9e-3 -0.46875 0.0313-1.4727 0.45237-2.7755 1.1507-3.9688 2-0.0769 0.0649-0.17221 0.11987-0.25 0.1875-1.7985 1.5636-3.8325 3.8271-5.9688 6.5625-2.0021 2.8707-3.8038 5.9238-5.9375 8.375-8.3148 12.536-16.25 27.824-16.25 30.938 0 5.5188 17.468 23.805 25.969 38.625 8.3328 14.526 18.722 24.996 17.75 27.219-2.5774 14.882-3.969 21.329-6.5 39.594-2.5309 18.264 0.0937 18.281 0.0937 18.281s67.733-0.22585 69.062-0.34375c1.3292-0.1179 1.0625-2 1.0625-2 0-2.1568 0.4382-4.6766 0.875-6.5938s0.34375-15.366 0.34375-20.781c-0.6509-5.1402 0.9553-24.125 1.1875-25 0.2323-0.87472 1.5538-2.4601 3.0938-4s4.0625-6.3438 4.0625-6.3438c3.0818-4.1085 3.7744-3.1884 5.2812-6.4062 1.0358-2.2121 2.5306-9.3509 3.5938-14.062-5.2453-3.257-10.425-6.6741-15.719-9.8125l-0.875 0.78125c-0.504 0.70604-1.4194 0.6526-1.9062-0.5-0.4867-1.1526-1.7188-1.9688-1.7188-1.9688-1.5294-0.57564-4.9008-4.3154-9.4062-8.3125-3.8809-4.8182-8.6393-4.4575-11.188-5.4688-2.5482-1.0112-19.846-4.6582-22.062-4.7812-2.2169-0.123 0 2.7812 0 2.7812 4.0212 5.2964 17.096 20.991 17.156 21.062-0.08-0.0637-0.26715-7e-3 1.9062 5.0312 2.4839 5.7586 4.2096 12.121 5.8125 14.875 1.3276 5.6454 4.1549 7.4101 5.6875 8.2188 1.5325 0.80864 0.96875 1.5 0.96875 1.5-1.0114 0.54748-3.1962 2.75-4.4062 2.75s-2.625 1.7812-2.625 1.7812c-1.4872 1.3317 0.5625 35.727 0.5625 37.281 0 1.5538-0.84375 1.9375-0.84375 1.9375s-0.76585-0.75364-0.53125-1.5625-0.3793-10.014-0.75-12.125c-0.83855-1.74-0.53125-3.9062-0.53125-3.9062 0.5411-2.5803-1.9293-18.547-2.5625-20.656-0.6333-2.1093-0.0375-4.381-0.90625-5.25-0.8689-0.86897-9.07-0.0388-9.75-0.71875-0.68-0.67998 0-0.6875 0-0.6875 4.1216-0.38445 13.468-7.324 13.5-9.4062 0.032-2.0823-29.387-45.58-32.125-47.188-2.738-1.6078-7.5058-2.5785-8.8438-3.25-1.3378-0.67155-3.5862-2.5421-7.0312-3-3.4451-0.45792-3.9118-1.1522-4.1562-1.6562-0.2445-0.50403 2.75-0.9375 2.75-0.9375 3.9754-2.7703 6.4694-9.65 5.4062-12.344-1.0631-2.6938-0.1875-3.2812-0.1875-3.2812 3.2801 1.528 12.438 11.5 12.438 11.5 6.2866 1.3756 17.539-3.0542 21.25-4.7812 3.7107-1.727 4.6012-12.18 3.9688-14.344-0.2631-0.90034-7.2781-4.3356-15.75-8.0938-0.31133-0.0678-0.6368-0.17917-0.90625-0.375-7.5105-3.3105-15.932-6.7771-22.125-9.0312 0.21098 0.42886 0.45237 0.84528 0.65625 1.25-1.5018-0.64224-2.9165-1.7448-4.4062-2.5625-0.046-0.015-0.0796-0.0165-0.125-0.0313-1.5937-0.51796-2.8393-0.86507-3.6562-1zm73.062 7.5c-1.8667 0.0408-3.6965 0.86681-4.9375 2.4375l-24.562 35.156c-2.2062 2.7923-1.7299 6.8876 1.0625 9.0938l11.562 5.5312c2.7923 2.2061 6.8876 1.7298 9.0938-1.0625l23.75-30.062c2.2061-2.7924 1.7299-6.8876-1.0625-9.0938l-10.75-10.625c-1.2216-0.96519-2.7042-1.4067-4.1562-1.375zm-42.219 1.7812c-0.96483 0.14458 0.28385 0.90069 0 0zm63.281 19.281c-0.5524 0.0164-1.0914 0.19935-1.5 0.59375l-26.438 31.688c-1.6343 1.5776-1.8296 4.088-0.40625 5.5625l7.2188 7.4688c1.4234 1.4746 3.9282 1.3901 5.5625-0.1875l28.938-27.938c1.6343-1.5776 1.7983-4.088 0.375-5.5625l-8.9688-9.1875c-1.0675-1.1059-3.1238-2.4868-4.7812-2.4375zm-49.125 8.125-15.375 4.25c-2.5468 0.68833-7.9824 2.3625-9.5312-0.21875-1.5487-2.5812-1.5886-3.2911-3.5312-3.1875-3.1969 0.63065-2.3702 3.382-1.625 4.25 1.5067 1.7549 11.745 8.638 17.156 10.531 0.6636 0.23216 1.2347-0.17317 2.25-1.6875s9.9272-11.5 10.719-12.688c0.6195-1.2218-0.0625-1.25-0.0625-1.25zm55.25 18.938c-4.1851 3.9197-8.507 7.764-12.438 11.875-2.6433 1.8954-5.2464 5.8856-8.3438 8 9.1967 5.672 17.918 11.042 25.438 15.594 2.0593 1.4789 6.9767-1.8288 10.938-7.3438 3.9608-5.5147 5.4968-11.146 3.4375-12.625-5.671-4.742-12.116-9.978-19.031-15.5zm21.375 21.594c-1.4454 5.4841-5.2583 10.551-9.9688 13.875l4.5625 3.0625c2.0521 1.3914 4.8352 0.87986 6.25-1.1562l4.6562-6.6875c1.4152-2.0358 0.92714-4.7649-1.125-6.1562l-4.375-2.9375z"/>
 </g>
</svg>
