<?xml version="1.0" encoding="UTF-8"?>
<svg enable-background="new 0 0 247.275 314.461" viewBox="0 0 247.275 314.461" xmlns="http://www.w3.org/2000/svg">
 <path d="m242.458,29.16c-2.834-3.664-8.315-8.102-18.328-8.438-17.835-.601-26.23,13.785-28.42,22.493-7.859,24.03-16.923,60.411-23.953,90.449 .482-6.918 1.088-15.599 1.088-15.599 .004-.057.006-.113.006-.17v-.212c0-6.799-2.269-12.662-6.56-16.953-7.118-7.117-17.139-7.323-18.259-7.323h-.095l-.167.004c-8.547.267-14.17,3.262-17.796,6.556-1.249-3.149-2.971-5.95-5.204-8.316-4.751-5.034-11.191-7.725-19.142-7.995-1.495-.097-9.659-.284-16.496,5.902-5.158,4.667-7.914,11.412-8.209,20.038-.001.01-.007.018-.007.028 0,0-.576,10.586-1.127,20.744-10.9-40.705-27.944-99.533-28.757-102.336-3.886-13.391-10-22.129-18.17-25.974-6.949-3.269-12.959-1.859-15.323-1.055-6.029,1.332-10.81,4.625-13.826,9.545-2.464,4.018-3.713,9.002-3.713,14.814 0,6.201 1.455,11.381 1.747,12.356l.038.123c15.815,49.761 30.353,107.93 33.341,120.052-.061.747-2.27,27.986-2.361,29.127l-18.773,28.765c-.261.4-.396.865-.396,1.334 0,.246.037.494.112.733l29.877,94.9c.32,1.018 1.262,1.709 2.328,1.709h139.699c1.067,0 2.011-.693 2.329-1.713l23.299-74.555c.07-.222.106-.453.111-.686l.015-.877c.349-19.908 5.091-46.874 5.291-48.011l.023-.138c5.768-36.001 22.519-105.37 28.023-128.165l1.601-6.688c.43-1.92.972-5.058.972-8.676-.001-4.99-1.033-10.9-4.818-15.792z"/>
 <path d="m42.252 175.73 9.766-15.867 26.564 0.284c-7.492-32.235-35.756-129.73-35.756-129.73-8.02-27.631-22.815-21.222-22.815-21.222-16.954 3.09-10.079 26.082-10.079 26.082 16.177 50.896 30.7 109.21 33.822 121.93l-1.502 18.526zm181.73-147.55c-14.746-1.34-20.096 17.529-20.096 17.529-15.275 46.629-35.239 140.73-35.324 141.25-6.149 37.598-28.662 34.886-28.662 34.886-12.478 0.542-20.071-9.765-20.071-9.765l-3.256 3.255c23.869 16.273 23.692 48.785 23.325 50.992-0.542 3.255-4.271 3.187-4.271 3.187-3.797-0.543-4.407-3.187-4.407-3.187-4.338-63.469-61.841-55.333-61.841-55.333-6.984-3.118-1.627-8.679-1.627-8.679 24.411-4.339 42.312 6.51 42.312 6.51 36.888-29.835 3.255-42.312 3.255-42.312h-56.96l-33.633 51.535 27.666 87.879h130.74l21.698-69.436c0.37-21.12 5.424-49.365 5.424-49.365 6.76-42.205 28.626-130.45 29.728-135.38s3.907-21.93-13.995-23.558zm-99.271 177.39c6.509 10.308 15.731 8.138 15.731 8.138 17.901-1.086 18.985-26.038 18.985-26.038l4.883-69.979c0-15.732-16.275-15.732-16.275-15.732-17.359 0.543-17.357 15.189-17.357 15.189l-3.255 48.822c20.071 18.986-2.712 39.6-2.712 39.6zm-1.086-94.389s0.543-18.444-18.444-18.986c0 0-15.188-1.085-15.731 17.902l-2.712 49.906 32.82-0.135 4.067-48.687z" fill="#fff"/>
</svg>
