<?xml version="1.0" encoding="UTF-8"?>
<svg version="1.1" viewBox="0 0 771 1920" xmlns="http://www.w3.org/2000/svg">
 <g transform="translate(0 867.64)">
  <path d="m372.27-866.09c-19.58 0.57258-25.179 25.513-25.179 25.513l-21.775 76.928-5.2053-1.5436-4.8802-5.8282c-0.8135-0.9039-2.1704-1.8078-4.0686-2.7117l-13.559-5.0166c-2.173-0.26227-3.6557 0.62621-4.746 2.1685 0 0-4.3846 7.3008-5.2871 11.388-0.95504 4.3249 0 13.288 0 13.288 0.39273 2.319 1.512 3.9135 4.0686 4.0686l15.457 0.13422c3.3188 0.27269 6.3954-1.1375 9.3536-3.3891l5.004 1.0927-9.2613 32.717-4.2846-1.2688-4.8802-5.8303c-0.81351-0.90389-2.1683-1.8078-4.0665-2.7117l-13.559-5.0166c-2.173-0.26227-3.6557 0.6262-4.746 2.1685 0 0-4.3846 7.3029-5.2871 11.39-0.95504 4.3249 0 13.288 0 13.288 0.39273 2.319 1.5099 3.9114 4.0665 4.0665l15.457 0.13631c3.3188 0.27269 6.3975-1.1375 9.3557-3.3891l4.0602 0.88503-10.367 36.626-3.0494-0.90391-4.8802-5.8303c-0.81351-0.90389-2.1704-1.8078-4.0686-2.7117l-13.559-5.0166c-2.1731-0.26227-3.6536 0.62621-4.7439 2.1685 0 0-4.3866 7.3029-5.2892 11.39-0.95504 4.3249 0 13.288 0 13.288 0.39274 2.319 1.512 3.9114 4.0686 4.0665l15.457 0.13631c3.3188 0.27268 6.3975-1.1375 9.3557-3.3891l2.7998 0.6103-0.90181 3.1857c-3.6915 13.544 1.936 17.77 8.9488 20.609 18.725 9.4359 40.79 15.052 40.132 46.64l-7.8646 688.77c-1.3028 20.338-5.8806 40.675-31.456 61.012-5.3796 4.3782-10.41 9.1379-13.015 16.543l-282.83 802.93c-24.055 61.535 34.496 86.456 73.216 40.405l224.18-270.01s41.757-58.571 80.533-58.571 80.533 58.571 80.533 58.571l238.31 280.99c27.415 28.14 79.827 9.6348 62.233-50.438l-284.82-798.51c-1.8757-7.2218-5.4334-14.503-11.64-18.477-29.126-23.589-34.857-48.13-37.219-74.216l-15.184-678.89c-0.83888-37.507 28.867-42.348 41.447-47.064 11.511-4.3153 6.6242-11.729 4.7859-17.862l-1.8225-5.7652 2.1517-0.46978c2.9582 2.2516 6.0369 3.6618 9.3557 3.3891l15.457-0.13631c2.5566-0.15511 3.6759-1.7476 4.0686-4.0665 0 0 0.95504-8.9631 0-13.288-0.90253-4.0871-5.2892-11.39-5.2892-11.39-1.0903-1.5423-2.5709-2.4308-4.7439-2.1685l-13.559 5.0166c-1.8982 0.90389-3.2551 1.8078-4.0686 2.7117l-4.8802 5.8303-2.8312 0.83889-11.491-36.364 4.9662-1.0822c2.9582 2.2516 6.0369 3.6618 9.3557 3.3891l15.457-0.13631c2.5566-0.15511 3.6738-1.7476 4.0665-4.0665 0 0 0.95504-8.9631 0-13.288-0.90253-4.0871-5.2871-11.39-5.2871-11.39-1.0903-1.5423-2.573-2.4308-4.746-2.1685l-13.559 5.0166c-1.8982 0.90389-3.253 1.8078-4.0665 2.7117l-4.8823 5.8303-5.5807 1.6526-10.438-33.029 5.3311-1.164c2.9582 2.2516 6.0348 3.6618 9.3536 3.3891l15.457-0.13422c2.5566-0.15511 3.6759-1.7496 4.0686-4.0686 0 0 0.95504-8.9631 0-13.288-0.90253-4.0871-5.2871-11.388-5.2871-11.388-1.0903-1.5423-2.573-2.4308-4.746-2.1685l-13.559 5.0166c-1.8982 0.9039-3.2551 1.8078-4.0686 2.7117l-4.8802 5.8282-5.9372 1.7596-24.38-77.144s-7.0501-24.405-28.201-25.49c-0.66097-0.0339-1.3062-0.0415-1.9378-0.0231z" fill-rule="evenodd" stroke="#000" stroke-width="1.0738px"/>
 </g>
</svg>
